<svg width="96" height="96" viewBox="0 0 96 96" fill="none" xmlns="http://www.w3.org/2000/svg">
<path d="M44.1202 34.12C44.4149 33.8454 44.6514 33.5142 44.8153 33.1462C44.9793 32.7782 45.0675 32.3809 45.0746 31.9781C45.0817 31.5753 45.0076 31.1752 44.8567 30.8016C44.7058 30.4281 44.4812 30.0887 44.1963 29.8038C43.9115 29.519 43.5721 29.2944 43.1986 29.1435C42.825 28.9926 42.4249 28.9185 42.0221 28.9256C41.6193 28.9327 41.222 29.0209 40.854 29.1849C40.486 29.3488 40.1548 29.5853 39.8802 29.88L23.8802 45.88C23.6011 46.158 23.3796 46.4884 23.2284 46.8522C23.0773 47.216 22.9995 47.6061 22.9995 48C22.9995 48.394 23.0773 48.784 23.2284 49.1478C23.3796 49.5116 23.6011 49.842 23.8802 50.12L39.8802 66.12C40.1548 66.4148 40.486 66.6512 40.854 66.8151C41.222 66.9791 41.6193 67.0673 42.0221 67.0744C42.4249 67.0815 42.825 67.0074 43.1986 66.8565C43.5721 66.7056 43.9115 66.481 44.1963 66.1962C44.4812 65.9113 44.7058 65.5719 44.8567 65.1984C45.0076 64.8248 45.0817 64.4247 45.0746 64.0219C45.0675 63.6191 44.9793 63.2218 44.8153 62.8539C44.6514 62.4859 44.4149 62.1547 44.1202 61.88L33.2402 51L72.0002 51C72.7958 51 73.5589 50.6839 74.1215 50.1213C74.6841 49.5587 75.0002 48.7957 75.0002 48C75.0002 47.2044 74.6841 46.4413 74.1215 45.8787C73.5589 45.3161 72.7958 45 72.0002 45L33.2402 45L44.1202 34.12Z" fill="#F3F4ED"/>
</svg>
