<svg xmlns="http://www.w3.org/2000/svg" width="64" height="64" viewBox="0 0 64 64" fill="none">
  <path d="M29.4132 22.7467C29.6097 22.5636 29.7673 22.3428 29.8766 22.0974C29.9859 21.8521 30.0447 21.5873 30.0495 21.3187C30.0542 21.0502 30.0048 20.7834 29.9042 20.5344C29.8036 20.2854 29.6539 20.0591 29.464 19.8692C29.2741 19.6793 29.0478 19.5296 28.7988 19.429C28.5498 19.3284 28.283 19.279 28.0145 19.2838C27.746 19.2885 27.4811 19.3473 27.2358 19.4566C26.9905 19.5659 26.7697 19.7235 26.5866 19.92L15.9199 30.5867C15.7338 30.772 15.5861 30.9922 15.4854 31.2348C15.3846 31.4773 15.3328 31.7374 15.3328 32C15.3328 32.2626 15.3846 32.5227 15.4854 32.7652C15.5861 33.0078 15.7338 33.228 15.9199 33.4133L26.5866 44.08C26.7697 44.2765 26.9905 44.4341 27.2358 44.5434C27.4811 44.6527 27.746 44.7115 28.0145 44.7162C28.283 44.721 28.5498 44.6716 28.7988 44.571C29.0478 44.4704 29.2741 44.3207 29.464 44.1308C29.6539 43.9409 29.8036 43.7146 29.9042 43.4656C30.0048 43.2166 30.0542 42.9498 30.0495 42.6813C30.0447 42.4127 29.9859 42.1479 29.8766 41.9026C29.7673 41.6572 29.6097 41.4364 29.4132 41.2533L22.1599 34H47.9999C48.5303 34 49.039 33.7893 49.4141 33.4142C49.7892 33.0391 49.9999 32.5304 49.9999 32C49.9999 31.4696 49.7892 30.9609 49.4141 30.5858C49.039 30.2107 48.5303 30 47.9999 30H22.1599L29.4132 22.7467Z" fill="#e65703"/>
</svg>