<svg xmlns="http://www.w3.org/2000/svg" width="38" height="38" viewBox="0 0 38 38" fill="none">
  <path d="M18.9998 37.3333C28.4998 37.3333 36.3165 30.1 37.2498 20.8333C37.3498 19.85 36.5665 19 35.5832 19C34.7332 19 34.0165 19.6333 33.9332 20.4667C33.1998 28.0667 26.7832 34 18.9998 34C13.7998 34 9.2165 31.35 6.53317 27.3333H8.99984C9.9165 27.3333 10.6665 26.5833 10.6665 25.6667C10.6665 24.75 9.9165 24 8.99984 24H2.33317C1.4165 24 0.666504 24.75 0.666504 25.6667V32.3333C0.666504 33.25 1.4165 34 2.33317 34C3.24984 34 3.99984 33.25 3.99984 32.3333V29.55C7.3165 34.25 12.7998 37.3333 18.9998 37.3333ZM18.9998 0.666657C9.49984 0.666657 1.68317 7.89999 0.749837 17.1667C0.666504 18.15 1.43317 19 2.4165 19C3.2665 19 3.98317 18.3667 4.0665 17.5333C4.79984 9.93332 11.2165 3.99999 18.9998 3.99999C24.1998 3.99999 28.7832 6.64999 31.4665 10.6667H28.9998C28.0832 10.6667 27.3332 11.4167 27.3332 12.3333C27.3332 13.25 28.0832 14 28.9998 14H35.6665C36.5832 14 37.3332 13.25 37.3332 12.3333V5.66666C37.3332 4.74999 36.5832 3.99999 35.6665 3.99999C34.7498 3.99999 33.9998 4.74999 33.9998 5.66666V8.44999C32.3072 6.04464 30.0607 4.0818 27.45 2.72714C24.8393 1.37248 21.9411 0.665773 18.9998 0.666657ZM17.5332 8.79999C17.5332 7.98332 18.1998 7.33332 18.9998 7.33332C19.7998 7.33332 20.4665 7.98332 20.4665 8.79999V9.41666C22.2498 9.73332 23.3832 10.6833 24.0665 11.5833C24.6332 12.3167 24.3332 13.3833 23.4665 13.75C22.8665 14 22.1665 13.8 21.7665 13.2833C21.2998 12.65 20.4665 12 19.0998 12C17.9332 12 16.0832 12.6167 16.0832 14.3167C16.0832 15.9 17.5165 16.5 20.4832 17.4833C24.4832 18.8667 25.4998 20.9 25.4998 23.2333C25.4998 27.6 21.3332 28.45 20.4665 28.6V29.2167C20.4665 30.0167 19.8165 30.6833 18.9998 30.6833C18.1832 30.6833 17.5332 30.0333 17.5332 29.2167V28.5167C16.4832 28.2667 14.3165 27.5 13.0498 25.0167C12.6665 24.2833 13.0998 23.3167 13.8665 23.0167C14.5498 22.75 15.3665 23 15.7165 23.65C16.2498 24.6667 17.2998 25.9333 19.2498 25.9333C20.7998 25.9333 22.5498 25.1333 22.5498 23.25C22.5498 21.65 21.3832 20.8167 18.7498 19.8667C16.9165 19.2167 13.1665 18.15 13.1665 14.35C13.1665 14.1833 13.1832 10.35 17.5332 9.41666V8.79999Z" fill="white"/>
</svg>